<?xml version="1.0" encoding="utf-8" standalone="no"?>
<!DOCTYPE svg PUBLIC "-//W3C//DTD SVG 1.1//EN"
  "http://www.w3.org/Graphics/SVG/1.1/DTD/svg11.dtd">
<svg xmlns:xlink="http://www.w3.org/1999/xlink" width="240pt" height="180pt" viewBox="0 0 240 180" xmlns="http://www.w3.org/2000/svg" version="1.1">
 <metadata>
  <rdf:RDF xmlns:dc="http://purl.org/dc/elements/1.1/" xmlns:cc="http://creativecommons.org/ns#" xmlns:rdf="http://www.w3.org/1999/02/22-rdf-syntax-ns#">
   <cc:Work>
    <dc:type rdf:resource="http://purl.org/dc/dcmitype/StillImage"/>
    <dc:date>2026-09-17T17:41:20.578813</dc:date>
    <dc:format>image/svg+xml</dc:format>
    <dc:creator>
     <cc:Agent>
      <dc:title>Matplotlib v3.10.9, https://matplotlib.org/</dc:title>
     </cc:Agent>
    </dc:creator>
   </cc:Work>
  </rdf:RDF>
 </metadata>
 <defs>
  <style type="text/css">*{stroke-linejoin: round; stroke-linecap: butt}</style>
 </defs>
 <g id="figure_1">
  <g id="patch_1">
   <path d="M 0 180 
L 240 180 
L 240 0 
L 0 0 
z
" style="fill: #ffffff"/>
  </g>
  <g id="axes_1">
   <g id="patch_2">
    <path d="M 32.27024 133.64728 
L 236.99976 133.64728 
L 236.99976 3.00024 
L 32.27024 3.00024 
z
" style="fill: #ffffff"/>
   </g>
   <g id="matplotlib.axis_1">
    <g id="xtick_1">
     <g id="line2d_1">
      <defs>
       <path id="mc10b41d581" d="M 0 0 
L 0 3.5 
" style="stroke: #303c4b; stroke-width: 0.7"/>
      </defs>
      <g>
       <use xlink:href="#mc10b41d581" x="226.032107" y="133.64728" style="fill: #303c4b; stroke: #303c4b; stroke-width: 0.7"/>
      </g>
     </g>
     <g id="text_1">
      <text style="font-size: 7px; font-family: 'Liberation Sans', 'DejaVu Sans', 'Arial', 'Helvetica', sans-serif; text-anchor: middle; fill: #303c4b" x="226.032107" y="145.966186" transform="rotate(-0 226.032107 145.966186)">1100</text>
     </g>
    </g>
    <g id="xtick_2">
     <g id="line2d_2">
      <g>
       <use xlink:href="#mc10b41d581" x="199.918648" y="133.64728" style="fill: #303c4b; stroke: #303c4b; stroke-width: 0.7"/>
      </g>
     </g>
     <g id="text_2">
      <text style="font-size: 7px; font-family: 'Liberation Sans', 'DejaVu Sans', 'Arial', 'Helvetica', sans-serif; text-anchor: middle; fill: #303c4b" x="199.918648" y="145.966186" transform="rotate(-0 199.918648 145.966186)">1200</text>
     </g>
    </g>
    <g id="xtick_3">
     <g id="line2d_3">
      <g>
       <use xlink:href="#mc10b41d581" x="173.805189" y="133.64728" style="fill: #303c4b; stroke: #303c4b; stroke-width: 0.7"/>
      </g>
     </g>
     <g id="text_3">
      <text style="font-size: 7px; font-family: 'Liberation Sans', 'DejaVu Sans', 'Arial', 'Helvetica', sans-serif; text-anchor: middle; fill: #303c4b" x="173.805189" y="145.966186" transform="rotate(-0 173.805189 145.966186)">1300</text>
     </g>
    </g>
    <g id="xtick_4">
     <g id="line2d_4">
      <g>
       <use xlink:href="#mc10b41d581" x="147.69173" y="133.64728" style="fill: #303c4b; stroke: #303c4b; stroke-width: 0.7"/>
      </g>
     </g>
     <g id="text_4">
      <text style="font-size: 7px; font-family: 'Liberation Sans', 'DejaVu Sans', 'Arial', 'Helvetica', sans-serif; text-anchor: middle; fill: #303c4b" x="147.69173" y="145.966186" transform="rotate(-0 147.69173 145.966186)">1400</text>
     </g>
    </g>
    <g id="xtick_5">
     <g id="line2d_5">
      <g>
       <use xlink:href="#mc10b41d581" x="121.57827" y="133.64728" style="fill: #303c4b; stroke: #303c4b; stroke-width: 0.7"/>
      </g>
     </g>
     <g id="text_5">
      <text style="font-size: 7px; font-family: 'Liberation Sans', 'DejaVu Sans', 'Arial', 'Helvetica', sans-serif; text-anchor: middle; fill: #303c4b" x="121.57827" y="145.966186" transform="rotate(-0 121.57827 145.966186)">1500</text>
     </g>
    </g>
    <g id="xtick_6">
     <g id="line2d_6">
      <g>
       <use xlink:href="#mc10b41d581" x="95.464811" y="133.64728" style="fill: #303c4b; stroke: #303c4b; stroke-width: 0.7"/>
      </g>
     </g>
     <g id="text_6">
      <text style="font-size: 7px; font-family: 'Liberation Sans', 'DejaVu Sans', 'Arial', 'Helvetica', sans-serif; text-anchor: middle; fill: #303c4b" x="95.464811" y="145.966186" transform="rotate(-0 95.464811 145.966186)">1600</text>
     </g>
    </g>
    <g id="xtick_7">
     <g id="line2d_7">
      <g>
       <use xlink:href="#mc10b41d581" x="69.351352" y="133.64728" style="fill: #303c4b; stroke: #303c4b; stroke-width: 0.7"/>
      </g>
     </g>
     <g id="text_7">
      <text style="font-size: 7px; font-family: 'Liberation Sans', 'DejaVu Sans', 'Arial', 'Helvetica', sans-serif; text-anchor: middle; fill: #303c4b" x="69.351352" y="145.966186" transform="rotate(-0 69.351352 145.966186)">1700</text>
     </g>
    </g>
    <g id="xtick_8">
     <g id="line2d_8">
      <g>
       <use xlink:href="#mc10b41d581" x="43.237893" y="133.64728" style="fill: #303c4b; stroke: #303c4b; stroke-width: 0.7"/>
      </g>
     </g>
     <g id="text_8">
      <text style="font-size: 7px; font-family: 'Liberation Sans', 'DejaVu Sans', 'Arial', 'Helvetica', sans-serif; text-anchor: middle; fill: #303c4b" x="43.237893" y="145.966186" transform="rotate(-0 43.237893 145.966186)">1800</text>
     </g>
    </g>
    <g id="text_9">
     <!-- Wavenumber ($\mathrm{cm^{-1}}$) -->
     <g style="fill: #303c4b" transform="translate(92.995 158.078217)">
      <text>
       <tspan x="0" y="-0.857813" style="font-size: 8px; font-family: 'DejaVu Sans'; fill: #303c4b">W</tspan>
       <tspan x="7.910156" y="-0.857813" style="font-size: 8px; font-family: 'DejaVu Sans'; fill: #303c4b">a</tspan>
       <tspan x="12.8125" y="-0.857813" style="font-size: 8px; font-family: 'DejaVu Sans'; fill: #303c4b">v</tspan>
       <tspan x="17.546875" y="-0.857813" style="font-size: 8px; font-family: 'DejaVu Sans'; fill: #303c4b">e</tspan>
       <tspan x="22.46875" y="-0.857813" style="font-size: 8px; font-family: 'DejaVu Sans'; fill: #303c4b">n</tspan>
       <tspan x="27.539062" y="-0.857813" style="font-size: 8px; font-family: 'DejaVu Sans'; fill: #303c4b">u</tspan>
       <tspan x="32.609375" y="-0.857813" style="font-size: 8px; font-family: 'DejaVu Sans'; fill: #303c4b">m</tspan>
       <tspan x="40.402344" y="-0.857813" style="font-size: 8px; font-family: 'DejaVu Sans'; fill: #303c4b">b</tspan>
       <tspan x="45.480469" y="-0.857813" style="font-size: 8px; font-family: 'DejaVu Sans'; fill: #303c4b">e</tspan>
       <tspan x="50.402344" y="-0.857813" style="font-size: 8px; font-family: 'DejaVu Sans'; fill: #303c4b">r</tspan>
       <tspan x="53.691406" y="-0.857813" style="font-size: 8px; font-family: 'DejaVu Sans'; fill: #303c4b"> </tspan>
       <tspan x="56.234375" y="-0.857813" style="font-size: 8px; font-family: 'DejaVu Sans'; fill: #303c4b">(</tspan>
       <tspan x="59.355469" y="-0.857813" style="font-size: 8px; font-family: 'DejaVu Sans'; fill: #303c4b">c</tspan>
       <tspan x="63.753906" y="-0.857813" style="font-size: 8px; font-family: 'DejaVu Sans'; fill: #303c4b">m</tspan>
       <tspan x="80.097266" y="-0.857813" style="font-size: 8px; font-family: 'DejaVu Sans'; fill: #303c4b">)</tspan>
       <tspan x="71.623437" y="-3.920313" style="font-size: 5.6px; font-family: 'DejaVu Sans'; fill: #303c4b">−</tspan>
       <tspan x="76.315625" y="-3.920313" style="font-size: 5.6px; font-family: 'DejaVu Sans'; fill: #303c4b">1</tspan>
      </text>
     </g>
    </g>
   </g>
   <g id="matplotlib.axis_2">
    <g id="ytick_1">
     <g id="line2d_9">
      <path d="M 32.27024 121.004018 
L 236.99976 121.004018 
" clip-path="url(#p935ce90b33)" style="fill: none; stroke: #dce3e9; stroke-opacity: 0.65; stroke-width: 0.5; stroke-linecap: square"/>
     </g>
     <g id="line2d_10">
      <defs>
       <path id="m5b2ada086b" d="M 0 0 
L -3.5 0 
" style="stroke: #303c4b; stroke-width: 0.7"/>
      </defs>
      <g>
       <use xlink:href="#m5b2ada086b" x="32.27024" y="121.004018" style="fill: #303c4b; stroke: #303c4b; stroke-width: 0.7"/>
      </g>
     </g>
     <g id="text_10">
      <text style="font-size: 7px; font-family: 'Liberation Sans', 'DejaVu Sans', 'Arial', 'Helvetica', sans-serif; text-anchor: end; fill: #303c4b" x="25.27024" y="123.663471" transform="rotate(-0 25.27024 123.663471)">0.0</text>
     </g>
    </g>
    <g id="ytick_2">
     <g id="line2d_11">
      <path d="M 32.27024 99.931915 
L 236.99976 99.931915 
" clip-path="url(#p935ce90b33)" style="fill: none; stroke: #dce3e9; stroke-opacity: 0.65; stroke-width: 0.5; stroke-linecap: square"/>
     </g>
     <g id="line2d_12">
      <g>
       <use xlink:href="#m5b2ada086b" x="32.27024" y="99.931915" style="fill: #303c4b; stroke: #303c4b; stroke-width: 0.7"/>
      </g>
     </g>
     <g id="text_11">
      <text style="font-size: 7px; font-family: 'Liberation Sans', 'DejaVu Sans', 'Arial', 'Helvetica', sans-serif; text-anchor: end; fill: #303c4b" x="25.27024" y="102.591368" transform="rotate(-0 25.27024 102.591368)">0.2</text>
     </g>
    </g>
    <g id="ytick_3">
     <g id="line2d_13">
      <path d="M 32.27024 78.859812 
L 236.99976 78.859812 
" clip-path="url(#p935ce90b33)" style="fill: none; stroke: #dce3e9; stroke-opacity: 0.65; stroke-width: 0.5; stroke-linecap: square"/>
     </g>
     <g id="line2d_14">
      <g>
       <use xlink:href="#m5b2ada086b" x="32.27024" y="78.859812" style="fill: #303c4b; stroke: #303c4b; stroke-width: 0.7"/>
      </g>
     </g>
     <g id="text_12">
      <text style="font-size: 7px; font-family: 'Liberation Sans', 'DejaVu Sans', 'Arial', 'Helvetica', sans-serif; text-anchor: end; fill: #303c4b" x="25.27024" y="81.519265" transform="rotate(-0 25.27024 81.519265)">0.4</text>
     </g>
    </g>
    <g id="ytick_4">
     <g id="line2d_15">
      <path d="M 32.27024 57.787708 
L 236.99976 57.787708 
" clip-path="url(#p935ce90b33)" style="fill: none; stroke: #dce3e9; stroke-opacity: 0.65; stroke-width: 0.5; stroke-linecap: square"/>
     </g>
     <g id="line2d_16">
      <g>
       <use xlink:href="#m5b2ada086b" x="32.27024" y="57.787708" style="fill: #303c4b; stroke: #303c4b; stroke-width: 0.7"/>
      </g>
     </g>
     <g id="text_13">
      <text style="font-size: 7px; font-family: 'Liberation Sans', 'DejaVu Sans', 'Arial', 'Helvetica', sans-serif; text-anchor: end; fill: #303c4b" x="25.27024" y="60.447162" transform="rotate(-0 25.27024 60.447162)">0.6</text>
     </g>
    </g>
    <g id="ytick_5">
     <g id="line2d_17">
      <path d="M 32.27024 36.715605 
L 236.99976 36.715605 
" clip-path="url(#p935ce90b33)" style="fill: none; stroke: #dce3e9; stroke-opacity: 0.65; stroke-width: 0.5; stroke-linecap: square"/>
     </g>
     <g id="line2d_18">
      <g>
       <use xlink:href="#m5b2ada086b" x="32.27024" y="36.715605" style="fill: #303c4b; stroke: #303c4b; stroke-width: 0.7"/>
      </g>
     </g>
     <g id="text_14">
      <text style="font-size: 7px; font-family: 'Liberation Sans', 'DejaVu Sans', 'Arial', 'Helvetica', sans-serif; text-anchor: end; fill: #303c4b" x="25.27024" y="39.375058" transform="rotate(-0 25.27024 39.375058)">0.8</text>
     </g>
    </g>
    <g id="ytick_6">
     <g id="line2d_19">
      <path d="M 32.27024 15.643502 
L 236.99976 15.643502 
" clip-path="url(#p935ce90b33)" style="fill: none; stroke: #dce3e9; stroke-opacity: 0.65; stroke-width: 0.5; stroke-linecap: square"/>
     </g>
     <g id="line2d_20">
      <g>
       <use xlink:href="#m5b2ada086b" x="32.27024" y="15.643502" style="fill: #303c4b; stroke: #303c4b; stroke-width: 0.7"/>
      </g>
     </g>
     <g id="text_15">
      <text style="font-size: 7px; font-family: 'Liberation Sans', 'DejaVu Sans', 'Arial', 'Helvetica', sans-serif; text-anchor: end; fill: #303c4b" x="25.27024" y="18.302955" transform="rotate(-0 25.27024 18.302955)">1.0</text>
     </g>
    </g>
    <g id="text_16">
     <text style="font-size: 8px; font-family: 'Liberation Sans', 'DejaVu Sans', 'Arial', 'Helvetica', sans-serif; text-anchor: middle; fill: #303c4b" x="8.474302" y="68.32376" transform="rotate(-90 8.474302 68.32376)">Normalized intensity</text>
    </g>
   </g>
   <g id="line2d_21">
    <path d="M 226.032107 121.004018 
L 191.91052 120.898167 
L 189.473264 120.588637 
L 188.254636 120.226379 
L 187.036008 119.602024 
L 185.81738 118.569847 
L 184.598752 116.934033 
L 183.380124 114.450548 
L 182.161496 110.841847 
L 180.942868 105.828679 
L 179.72424 99.180384 
L 178.505611 90.779983 
L 177.286983 80.693854 
L 174.849727 56.964361 
L 172.412471 33.499524 
L 171.193843 24.337487 
L 169.975215 18.164828 
L 168.756587 15.643502 
L 167.537959 17.051775 
L 166.31933 22.233672 
L 165.100702 30.627415 
L 163.882074 41.36568 
L 160.22619 77.538876 
L 159.007562 88.061697 
L 157.788934 96.960167 
L 156.570306 104.103866 
L 155.351678 109.564337 
L 154.13305 113.54685 
L 152.914421 116.322672 
L 151.695793 118.173902 
L 150.477165 119.356331 
L 149.258537 120.080209 
L 148.039909 120.505216 
L 145.602653 120.874131 
L 141.946769 120.990924 
L 128.54186 120.9683 
L 123.667347 120.797113 
L 121.230091 120.547248 
L 118.792835 120.052074 
L 117.574207 119.659123 
L 116.355579 119.13113 
L 115.13695 118.433135 
L 113.918322 117.525457 
L 112.699694 116.364598 
L 111.481066 114.904795 
L 110.262438 113.100287 
L 109.04381 110.908315 
L 107.825182 108.292781 
L 106.606554 105.228419 
L 105.387926 101.705201 
L 104.169298 97.732628 
L 101.732041 88.596484 
L 95.638901 63.357366 
L 94.420273 59.054191 
L 93.201645 55.381497 
L 91.983017 52.484781 
L 90.764389 50.482943 
L 89.54576 49.460198 
L 88.327132 49.460198 
L 87.108504 50.482943 
L 85.889876 52.484781 
L 84.671248 55.381497 
L 83.45262 59.054191 
L 82.233992 63.357366 
L 79.796736 73.198013 
L 76.140851 88.596484 
L 73.703595 97.732628 
L 72.484967 101.705201 
L 71.266339 105.228419 
L 70.047711 108.292781 
L 68.829083 110.908315 
L 67.610455 113.100287 
L 66.391827 114.904795 
L 65.173199 116.364598 
L 63.95457 117.525457 
L 62.735942 118.433135 
L 61.517314 119.13113 
L 60.298686 119.659123 
L 57.86143 120.339845 
L 55.424174 120.694375 
L 51.76829 120.915541 
L 44.456521 120.999121 
L 43.237893 121.001144 
L 43.237893 121.001144 
" clip-path="url(#p935ce90b33)" style="fill: none; stroke: #4e86af; stroke-width: 1.15; stroke-linecap: square"/>
   </g>
   <g id="line2d_22">
    <path d="M 226.032107 121.004018 
L 183.380124 120.930413 
L 180.942868 120.704087 
L 179.72424 120.431836 
L 178.505611 119.952821 
L 177.286983 119.144199 
L 176.068355 117.835224 
L 174.849727 115.804608 
L 173.631099 112.788198 
L 172.412471 108.501875 
L 171.193843 102.682783 
L 169.975215 95.147993 
L 168.756587 85.863714 
L 167.537959 75.011626 
L 163.882074 38.751758 
L 162.663446 28.411637 
L 161.444818 20.625819 
L 160.22619 16.209087 
L 159.007562 15.643502 
L 157.788934 18.991789 
L 156.570306 25.885884 
L 155.351678 35.59354 
L 152.914421 59.498065 
L 150.477165 82.908752 
L 149.258537 92.67024 
L 148.039909 100.709542 
L 146.821281 107.005038 
L 145.602653 111.704192 
L 144.384025 115.053503 
L 143.165397 117.335796 
L 141.946769 118.823639 
L 140.72814 119.751317 
L 139.509512 120.303164 
L 138.290884 120.613638 
L 135.853628 120.842171 
L 133.416372 120.815875 
L 130.979116 120.622867 
L 128.54186 120.205252 
L 127.323231 119.867983 
L 126.104603 119.410782 
L 124.885975 118.80129 
L 123.667347 118.002088 
L 122.448719 116.971371 
L 121.230091 115.664188 
L 120.011463 114.034358 
L 118.792835 112.037112 
L 117.574207 109.632447 
L 116.355579 106.789076 
L 115.13695 103.48876 
L 113.918322 99.730723 
L 111.481066 90.949372 
L 109.04381 80.919592 
L 105.387926 65.583226 
L 104.169298 61.015885 
L 102.95067 57.000366 
L 101.732041 53.692256 
L 100.513413 51.225142 
L 99.294785 49.70168 
L 98.076157 49.186503 
L 96.857529 49.70168 
L 95.638901 51.225142 
L 94.420273 53.692256 
L 93.201645 57.000366 
L 91.983017 61.015885 
L 89.54576 70.534761 
L 84.671248 90.949372 
L 82.233992 99.730723 
L 81.015364 103.48876 
L 79.796736 106.789076 
L 78.578108 109.632447 
L 77.35948 112.037112 
L 76.140851 114.034358 
L 74.922223 115.664189 
L 73.703595 116.971374 
L 72.484967 118.002097 
L 71.266339 118.801318 
L 70.047711 119.410862 
L 68.829083 119.868202 
L 66.391827 120.451116 
L 63.95457 120.749935 
L 60.298686 120.932968 
L 52.986918 121.000252 
L 43.237893 121.003985 
L 43.237893 121.003985 
" clip-path="url(#p935ce90b33)" style="fill: none; stroke-dasharray: 4.255,1.84; stroke-dashoffset: 0; stroke: #b98255; stroke-width: 1.15"/>
   </g>
   <g id="patch_3">
    <path d="M 32.27024 133.64728 
L 32.27024 3.00024 
" style="fill: none; stroke: #74808c; stroke-width: 0.7; stroke-linejoin: miter; stroke-linecap: square"/>
   </g>
   <g id="patch_4">
    <path d="M 32.27024 133.64728 
L 236.99976 133.64728 
" style="fill: none; stroke: #74808c; stroke-width: 0.7; stroke-linejoin: miter; stroke-linecap: square"/>
   </g>
   <g id="legend_1">
    <g id="line2d_23">
     <path d="M 184.115854 12.169146 
L 192.165854 12.169146 
L 200.215854 12.169146 
" style="fill: none; stroke: #4e86af; stroke-width: 1.15; stroke-linecap: square"/>
    </g>
    <g id="text_17">
     <text style="font-size: 7px; font-family: 'Liberation Sans', 'DejaVu Sans', 'Arial', 'Helvetica', sans-serif; text-anchor: start; fill: #303c4b" x="205.815854" y="14.619146" transform="rotate(-0 205.815854 14.619146)">State I</text>
    </g>
    <g id="line2d_24">
     <path d="M 184.115854 22.443834 
L 192.165854 22.443834 
L 200.215854 22.443834 
" style="fill: none; stroke-dasharray: 4.255,1.84; stroke-dashoffset: 0; stroke: #b98255; stroke-width: 1.15"/>
    </g>
    <g id="text_18">
     <text style="font-size: 7px; font-family: 'Liberation Sans', 'DejaVu Sans', 'Arial', 'Helvetica', sans-serif; text-anchor: start; fill: #303c4b" x="205.815854" y="24.893834" transform="rotate(-0 205.815854 24.893834)">State II</text>
    </g>
   </g>
  </g>
  <g id="text_19">
   <text style="font-size: 6px; font-family: 'Liberation Sans', 'DejaVu Sans', 'Arial', 'Helvetica', sans-serif; text-anchor: middle; fill: #303c4b" x="120" y="175.751947" transform="rotate(-0 120 175.751947)">SYNTHETIC DEMONSTRATION</text>
  </g>
 </g>
 <defs>
  <clipPath id="p935ce90b33">
   <rect x="32.27024" y="3.00024" width="204.72952" height="130.64704"/>
  </clipPath>
 </defs>
</svg>
