<?xml version="1.0" encoding="utf-8" standalone="no"?>
<!DOCTYPE svg PUBLIC "-//W3C//DTD SVG 1.1//EN"
  "http://www.w3.org/Graphics/SVG/1.1/DTD/svg11.dtd">
<svg xmlns:xlink="http://www.w3.org/1999/xlink" width="504pt" height="220pt" viewBox="0 0 504 220" xmlns="http://www.w3.org/2000/svg" version="1.1">
 <metadata>
  <rdf:RDF xmlns:dc="http://purl.org/dc/elements/1.1/" xmlns:cc="http://creativecommons.org/ns#" xmlns:rdf="http://www.w3.org/1999/02/22-rdf-syntax-ns#">
   <cc:Work>
    <dc:type rdf:resource="http://purl.org/dc/dcmitype/StillImage"/>
    <dc:date>2026-09-17T12:57:03.474634</dc:date>
    <dc:format>image/svg+xml</dc:format>
    <dc:creator>
     <cc:Agent>
      <dc:title>Matplotlib v3.10.9, https://matplotlib.org/</dc:title>
     </cc:Agent>
    </dc:creator>
   </cc:Work>
  </rdf:RDF>
 </metadata>
 <defs>
  <style type="text/css">*{stroke-linejoin: round; stroke-linecap: butt}</style>
 </defs>
 <g id="figure_1">
  <g id="patch_1">
   <path d="M 0 220 
L 504 220 
L 504 0 
L 0 0 
z
" style="fill: #ffffff"/>
  </g>
  <g id="axes_1">
   <g id="patch_2">
    <path d="M 41.95296 84.964 
L 152.92704 84.964 
Q 158.4912 84.964 158.4912 82.7992 
L 158.4912 29.4008 
Q 158.4912 27.236 152.92704 27.236 
L 41.95296 27.236 
Q 36.3888 27.236 36.3888 29.4008 
L 36.3888 82.7992 
Q 36.3888 84.964 41.95296 84.964 
z
" clip-path="url(#p1458f14213)" style="fill: #eaf2f7; stroke: #0072b2; stroke-width: 0.8; stroke-linejoin: miter"/>
   </g>
   <g id="patch_3">
    <path d="M 196.51296 84.964 
L 307.48704 84.964 
Q 313.0512 84.964 313.0512 82.7992 
L 313.0512 29.4008 
Q 313.0512 27.236 307.48704 27.236 
L 196.51296 27.236 
Q 190.9488 27.236 190.9488 29.4008 
L 190.9488 82.7992 
Q 190.9488 84.964 196.51296 84.964 
z
" clip-path="url(#p1458f14213)" style="fill: #eaf2f7; stroke: #0072b2; stroke-width: 0.8; stroke-linejoin: miter"/>
   </g>
   <g id="patch_4">
    <path d="M 351.07296 84.964 
L 462.04704 84.964 
Q 467.6112 84.964 467.6112 82.7992 
L 467.6112 29.4008 
Q 467.6112 27.236 462.04704 27.236 
L 351.07296 27.236 
Q 345.5088 27.236 345.5088 29.4008 
L 345.5088 82.7992 
Q 345.5088 84.964 351.07296 84.964 
z
" clip-path="url(#p1458f14213)" style="fill: #eaf2f7; stroke: #0072b2; stroke-width: 0.8; stroke-linejoin: miter"/>
   </g>
   <g id="patch_5">
    <path d="M 41.95296 175.164 
L 152.92704 175.164 
Q 158.4912 175.164 158.4912 172.9992 
L 158.4912 119.6008 
Q 158.4912 117.436 152.92704 117.436 
L 41.95296 117.436 
Q 36.3888 117.436 36.3888 119.6008 
L 36.3888 172.9992 
Q 36.3888 175.164 41.95296 175.164 
z
" clip-path="url(#p1458f14213)" style="fill: #eaf2f7; stroke: #0072b2; stroke-width: 0.8; stroke-linejoin: miter"/>
   </g>
   <g id="patch_6">
    <path d="M 196.51296 175.164 
L 307.48704 175.164 
Q 313.0512 175.164 313.0512 172.9992 
L 313.0512 119.6008 
Q 313.0512 117.436 307.48704 117.436 
L 196.51296 117.436 
Q 190.9488 117.436 190.9488 119.6008 
L 190.9488 172.9992 
Q 190.9488 175.164 196.51296 175.164 
z
" clip-path="url(#p1458f14213)" style="fill: #eaf2f7; stroke: #0072b2; stroke-width: 0.8; stroke-linejoin: miter"/>
   </g>
   <g id="patch_7">
    <path d="M 351.07296 175.164 
L 462.04704 175.164 
Q 467.6112 175.164 467.6112 172.9992 
L 467.6112 119.6008 
Q 467.6112 117.436 462.04704 117.436 
L 351.07296 117.436 
Q 345.5088 117.436 345.5088 119.6008 
L 345.5088 172.9992 
Q 345.5088 175.164 351.07296 175.164 
z
" clip-path="url(#p1458f14213)" style="fill: #eaf2f7; stroke: #0072b2; stroke-width: 0.8; stroke-linejoin: miter"/>
   </g>
   <g id="patch_8">
    <path d="M 158.169703 56.1 
Q 174.718053 56.1 190.371976 56.1 
" clip-path="url(#p1458f14213)" style="fill: none; stroke: #444444; stroke-width: 0.8; stroke-linecap: round"/>
    <path d="M 187.171976 54.5 
L 190.371976 56.1 
L 187.171976 57.7 
z
" clip-path="url(#p1458f14213)" style="fill: #444444; stroke: #444444; stroke-width: 0.8; stroke-linecap: round"/>
   </g>
   <g id="patch_9">
    <path d="M 312.729703 56.1 
Q 329.278053 56.1 344.931976 56.1 
" clip-path="url(#p1458f14213)" style="fill: none; stroke: #444444; stroke-width: 0.8; stroke-linecap: round"/>
    <path d="M 341.731976 54.5 
L 344.931976 56.1 
L 341.731976 57.7 
z
" clip-path="url(#p1458f14213)" style="fill: #444444; stroke: #444444; stroke-width: 0.8; stroke-linecap: round"/>
   </g>
   <g id="patch_10">
    <path d="M 404.574229 84.282187 
Q 252.002995 101.199668 100.32074 118.018576 
" clip-path="url(#p1458f14213)" style="fill: none; stroke: #444444; stroke-width: 0.8; stroke-linecap: round"/>
    <path d="M 103.677579 119.256168 
L 100.32074 118.018576 
L 103.324916 116.07566 
z
" clip-path="url(#p1458f14213)" style="fill: #444444; stroke: #444444; stroke-width: 0.8; stroke-linecap: round"/>
   </g>
   <g id="patch_11">
    <path d="M 158.169703 146.3 
Q 174.718053 146.3 190.371976 146.3 
" clip-path="url(#p1458f14213)" style="fill: none; stroke: #444444; stroke-width: 0.8; stroke-linecap: round"/>
    <path d="M 187.171976 144.7 
L 190.371976 146.3 
L 187.171976 147.9 
z
" clip-path="url(#p1458f14213)" style="fill: #444444; stroke: #444444; stroke-width: 0.8; stroke-linecap: round"/>
   </g>
   <g id="patch_12">
    <path d="M 312.729703 146.3 
Q 329.278053 146.3 344.931976 146.3 
" clip-path="url(#p1458f14213)" style="fill: none; stroke: #444444; stroke-width: 0.8; stroke-linecap: round"/>
    <path d="M 341.731976 144.7 
L 344.931976 146.3 
L 341.731976 147.9 
z
" clip-path="url(#p1458f14213)" style="fill: #444444; stroke: #444444; stroke-width: 0.8; stroke-linecap: round"/>
   </g>
   <g id="text_1">
    <text style="font-size: 8px; font-family: 'Liberation Sans', 'DejaVu Sans', 'Arial', 'Helvetica', sans-serif" transform="translate(61.314375 53.828375)">Mapped reactants</text>
    <text style="font-size: 8px; font-family: 'Liberation Sans', 'DejaVu Sans', 'Arial', 'Helvetica', sans-serif" transform="translate(71.17625 62.786625)">and products</text>
   </g>
   <g id="text_2">
    <text style="font-size: 8px; font-family: 'Liberation Sans', 'DejaVu Sans', 'Arial', 'Helvetica', sans-serif" transform="translate(218.158125 53.828375)">Graph and bond-</text>
    <text style="font-size: 8px; font-family: 'Liberation Sans', 'DejaVu Sans', 'Arial', 'Helvetica', sans-serif" transform="translate(216.979375 62.786625)">order hypotheses</text>
   </g>
   <g id="text_3">
    <text style="font-size: 8px; font-family: 'Liberation Sans', 'DejaVu Sans', 'Arial', 'Helvetica', sans-serif" transform="translate(369.37875 53.828375)">Three-dimensional</text>
    <text style="font-size: 8px; font-family: 'Liberation Sans', 'DejaVu Sans', 'Arial', 'Helvetica', sans-serif" transform="translate(384.62 62.786625)">candidates</text>
   </g>
   <g id="text_4">
    <text style="font-size: 8px; font-family: 'Liberation Sans', 'DejaVu Sans', 'Arial', 'Helvetica', sans-serif" transform="translate(67.970625 144.028375)">Reference-free</text>
    <text style="font-size: 8px; font-family: 'Liberation Sans', 'DejaVu Sans', 'Arial', 'Helvetica', sans-serif" transform="translate(79.46125 152.986625)">selection</text>
   </g>
   <g id="text_5">
    <text style="font-size: 8px; font-family: 'Liberation Sans', 'DejaVu Sans', 'Arial', 'Helvetica', sans-serif" transform="translate(217.615625 144.028375)">Optimization and</text>
    <text style="font-size: 8px; font-family: 'Liberation Sans', 'DejaVu Sans', 'Arial', 'Helvetica', sans-serif" transform="translate(216.8725 152.986625)">frequency checks</text>
   </g>
   <g id="text_6">
    <text style="font-size: 8px; font-family: 'Liberation Sans', 'DejaVu Sans', 'Arial', 'Helvetica', sans-serif" transform="translate(369.96875 144.028375)">Path and endpoint</text>
    <text style="font-size: 8px; font-family: 'Liberation Sans', 'DejaVu Sans', 'Arial', 'Helvetica', sans-serif" transform="translate(386.86625 152.986625)">validation</text>
   </g>
  </g>
  <g id="text_7">
   <text style="font-size: 6px; font-family: 'Liberation Sans', 'DejaVu Sans', 'Arial', 'Helvetica', sans-serif; text-anchor: middle" x="252" y="216.552188" transform="rotate(-0 252 216.552188)">SYNTHETIC DEMONSTRATION</text>
  </g>
 </g>
 <defs>
  <clipPath id="p1458f14213">
   <rect x="20.16" y="11" width="463.68" height="180.4"/>
  </clipPath>
 </defs>
</svg>
